# xmcd CD database file
#
# Track frame offsets:
#	180
#	14587
#	30406
#	47653
#	58018
#	70484
#	85660
#	109886
#	132420
#	156781
#	176812
#	191106
#	217451
#
# Disc length: 3262 seconds
#
# Revision: 1
# Processed by: cddbd v1.5.2PL0 Copyright (c) Steve Scherf et al.
# Submitted via: CDex 1.51
#
DISCID=c30cbc0d
DTITLE=Hans Olson - Arizona Blues
DYEAR=1995
DGENRE=Blues
TTITLE0=One Of These Mornings
TTITLE1=Full Time Love
TTITLE2=When I Get The Blues
TTITLE3=Me And Brownie McGhee
TTITLE4=She Ain't No Singer
TTITLE5=Phoenix Boogie
TTITLE6=Mr Unlucky
TTITLE7=I Feel Like I'm Coming Home
TTITLE8=Betty And Dupree
TTITLE9=Sail On
TTITLE10=The Sun Club Jump
TTITLE11=Arizona (What Are You Doing Tonight ?)
TTITLE12=Where's The Grey ?
EXTD=YEAR: 1995
EXTT0=
EXTT1=
EXTT2=
EXTT3=
EXTT4=
EXTT5=
EXTT6=
EXTT7=
EXTT8=
EXTT9=
EXTT10=
EXTT11=
EXTT12=
PLAYORDER=
